<svg width="512" height="512" viewBox="0 0 512 512" fill="none" xmlns="http://www.w3.org/2000/svg">
    <defs>
        <radialGradient id="bgGrad" cx="0" cy="0" r="1" gradientUnits="userSpaceOnUse" gradientTransform="translate(256 256) rotate(90) scale(256)">
            <stop offset="0%" stop-color="#3b82f6"/>
            <stop offset="100%" stop-color="#1e3a8a"/>
        </radialGradient>
        
        <filter id="paperEffect" x="60" y="55" width="392" height="410" filterUnits="userSpaceOnUse" color-interpolation-filters="sRGB">
            <feFlood flood-opacity="0" result="BackgroundImageFix"/>
            <feColorMatrix in="SourceAlpha" type="matrix" values="0 0 0 0 0 0 0 0 0 0 0 0 0 0 0 0 0 0 127 0" result="hardAlpha"/>
            <feOffset dy="8"/>
            <feGaussianBlur stdDeviation="8"/>
            <feColorMatrix type="matrix" values="0 0 0 0 0 0 0 0 0 0 0 0 0 0 0 0 0 0 0.25 0"/>
            <feBlend mode="normal" in2="BackgroundImageFix" result="dropShadow"/>
            <feBlend mode="normal" in="SourceGraphic" in2="dropShadow" result="shape"/>
        </filter>

        <linearGradient id="headerGrad" x1="86" y1="90" x2="426" y2="160" gradientUnits="userSpaceOnUse">
            <stop offset="0%" stop-color="#ef4444"/>
            <stop offset="100%" stop-color="#dc2626"/>
        </linearGradient>

        <linearGradient id="sunGrad" x1="0" y1="0" x2="1" y2="1">
            <stop offset="0%" stop-color="#fde047"/>
            <stop offset="100%" stop-color="#f59e0b"/>
        </linearGradient>
        <linearGradient id="moonGrad" x1="0" y1="1" x2="1" y2="0">
             <stop offset="0%" stop-color="#6366f1"/>
            <stop offset="100%" stop-color="#312e81"/>
        </linearGradient>
         
        <filter id="emblemGlow" x="130" y="150" width="252" height="252" filterUnits="userSpaceOnUse">
            <feGaussianBlur in="SourceAlpha" stdDeviation="6" result="blur"/>
            <feFlood flood-color="#ffffff" flood-opacity="0.2" result="color"/>
            <feComposite in="color" in2="blur" operator="in" result="shadow"/>
            <feBlend mode="screen" in="SourceGraphic" in2="shadow"/>
        </filter>

        <linearGradient id="textGrad" x1="0" y1="0" x2="1" y2="0" gradientTransform="rotate(10)">
            <stop offset="0%" stop-color="#d97706" /> 
            <stop offset="20%" stop-color="#fbbf24" /> 
            <stop offset="50%" stop-color="#b45309" /> 
            <stop offset="80%" stop-color="#3b82f6" /> 
            <stop offset="100%" stop-color="#1e3a8a" /> 
        </linearGradient>

        <filter id="textShadow" x="0" y="0" width="512" height="512" filterUnits="userSpaceOnUse">
             <feDropShadow dx="0" dy="2" stdDeviation="2" flood-color="#000000" flood-opacity="0.3"/>
        </filter>
    </defs>

    <rect x="4" y="4" width="504" height="504" rx="116" fill="url(#bgGrad)" stroke="#60a5fa" stroke-width="2" stroke-opacity="0.3"/>

    <g filter="url(#paperEffect)">
        <rect x="86" y="90" width="340" height="340" rx="36" fill="#f8fafc"/>
        <path d="M86 126C86 106.118 102.118 90 122 90H390C409.882 90 426 106.118 426 126V150H86V126Z" fill="url(#headerGrad)"/>
    </g>

    <g>
        <rect x="151" y="80" width="10" height="32" rx="5" fill="#94a3b8"/>
        <rect x="351" y="80" width="10" height="32" rx="5" fill="#94a3b8"/>
        <rect x="153" y="84" width="4" height="24" rx="2" fill="#e2e8f0"/>
        <rect x="353" y="84" width="4" height="24" rx="2" fill="#e2e8f0"/>
    </g>

    <g transform="translate(256 225) scale(0.65)" filter="url(#emblemGlow)">
        <circle cx="0" cy="0" r="102" fill="white" stroke="#e2e8f0" stroke-width="4"/>
        
        <mask id="splitMask">
            <rect x="-100" y="-100" width="200" height="200" fill="white"/>
             <path d="M -110 110 L 110 -110 L 110 110 Z" fill="black"/>
        </mask>

        <g mask="url(#splitMask)">
             <circle cx="0" cy="0" r="100" fill="url(#sunGrad)"/>
             <circle cx="-35" cy="-35" r="22" fill="#ffffff" fill-opacity="0.9"/>
             <circle cx="-35" cy="-35" r="14" fill="#fde047"/>
        </g>

        <mask id="splitMaskInverse">
            <rect x="-100" y="-100" width="200" height="200" fill="black"/>
             <path d="M -110 110 L 110 -110 L 110 110 Z" fill="white"/>
        </mask>

         <g mask="url(#splitMaskInverse)">
             <circle cx="0" cy="0" r="100" fill="url(#moonGrad)"/>
             <path d="M45 25C45 44.33 29.33 60 10 60C-2.5 60 -13 54 20 35C28 15 15 0 10 -10C30 -5 45 8 45 25Z" fill="#ffffff" fill-opacity="0.9"/>
             <circle cx="60" cy="10" r="3" fill="white"/>
             <circle cx="30" cy="65" r="2" fill="white"/>
        </g>
        
        <path d="M -70.7 70.7 L 70.7 -70.7" stroke="#ffffff" stroke-width="4" stroke-linecap="round" opacity="0.8"/>
    </g>

    <g filter="url(#textShadow)">
        <text x="256" y="340" text-anchor="middle" font-family="Arial, Helvetica, sans-serif" font-weight="900" font-size="58" fill="url(#textGrad)" letter-spacing="-1">TURNI</text>
        <text x="256" y="395" text-anchor="middle" font-family="Arial, Helvetica, sans-serif" font-weight="900" font-size="50" fill="url(#textGrad)" letter-spacing="0">2026</text>
    </g>
</svg>