<svg width="512" height="512" viewBox="0 0 512 512" xmlns="http://www.w3.org/2000/svg">
  <rect x="0" y="0" width="512" height="512" rx="100" ry="100" fill="#FFD700"/>
  <text x="50%" y="460" text-anchor="middle" font-family="Arial Black, Arial, sans-serif" font-weight="900" font-size="90" fill="#000000" letter-spacing="-5">118</text>
  <g stroke="#000000" stroke-width="20" fill="none" stroke-linecap="round" stroke-linejoin="round">
    <circle cx="120" cy="270" r="22" fill="#000000" stroke="none"/>
    <path d="M120,295 L120,360 M90,410 L120,360 L150,410 M100,320 L120,300 L160,320"/>
    <circle cx="390" cy="270" r="22" fill="#000000" stroke="none"/>
    <path d="M390,295 L390,360 M360,410 L390,360 L420,410 M350,320 L390,300 L410,320"/>
    <line x1="160" y1="330" x2="350" y2="310" stroke-width="15"/>
    <circle cx="170" cy="345" r="12" fill="#000000" stroke="none"/>
    <circle cx="340" cy="325" r="12" fill="#000000" stroke="none"/>
    <g transform="translate(255, 180) rotate(160)">
        <circle cx="0" cy="-35" r="22" fill="#000000" stroke="none"/>
        <path d="M0,-10 L0,60 M-30,90 L0,60 L30,90 M-30,20 L0,0 L30,20"/>
    </g>
  </g>
</svg>
